<svg viewBox="0 0 64 64" xmlns="http://www.w3.org/2000/svg"><path d="M24.9 8.62a13.15 13.15 0 0 0-8 25.05 12.93 12.93 0 0 0 4 .63 13.19 13.19 0 0 0 12.54-9.15A13.17 13.17 0 0 0 24.9 8.62Zm6.62 15.92A11.15 11.15 0 1 1 20.91 10a11 11 0 0 1 3.38.53 11.16 11.16 0 0 1 7.23 14.01ZM35.3 34.41a9.49 9.49 0 0 0 9.48 9.47 9.48 9.48 0 1 0-9.48-9.47Zm9.48-7.48a7.48 7.48 0 0 1 0 15 7.48 7.48 0 1 1 0-15ZM17 49.47A8.54 8.54 0 0 0 25.51 58 8.54 8.54 0 1 0 17 49.47Zm15.07 0A6.54 6.54 0 0 1 25.51 56a6.54 6.54 0 1 1 6.54-6.53Z" fill="#41a1f7" class="fill-000000"></path><path d="M39.81 35.1a1 1 0 0 0 1-1 3.73 3.73 0 0 1 3.73-3.73 1 1 0 0 0 0-2 5.74 5.74 0 0 0-5.73 5.73 1 1 0 0 0 1 1ZM18.79 27.76a6.87 6.87 0 0 1-4.44-4.3 1 1 0 0 0-1.89.66 8.9 8.9 0 0 0 5.72 5.55 1 1 0 0 0 .3 0 1 1 0 0 0 .31-2ZM24.51 45a1 1 0 0 0 1 1 3.5 3.5 0 0 1 3.5 3.5 1 1 0 0 0 2 0 5.51 5.51 0 0 0-5.5-5.5 1 1 0 0 0-1 1ZM24.32 11.67a3.68 3.68 0 1 0 2.38 4.63 3.68 3.68 0 0 0-2.38-4.63Zm.48 4a1.68 1.68 0 1 1-1.09-2.11 1.68 1.68 0 0 1 1.09 2.13ZM47.57 17a3.24 3.24 0 1 0-3.24 3.24A3.25 3.25 0 0 0 47.57 17Zm-4.48 0a1.24 1.24 0 1 1 1.24 1.24A1.24 1.24 0 0 1 43.09 17ZM33.12 36.17A2.86 2.86 0 1 0 30.26 39a2.86 2.86 0 0 0 2.86-2.83Zm-3.72 0a.86.86 0 1 1 .86.86.86.86 0 0 1-.86-.86ZM39.88 52.31a3.65 3.65 0 1 0-3.64-3.64 3.64 3.64 0 0 0 3.64 3.64Zm0-5.29a1.65 1.65 0 1 1-1.64 1.65A1.65 1.65 0 0 1 39.88 47Z" fill="#41a1f7" class="fill-000000"></path></svg>