<svg width="327" height="34" viewBox="0 0 327 34" fill="none" xmlns="http://www.w3.org/2000/svg">
<path d="M2.78 33.36C2.06 33.36 1.475 33.195 1.025 32.865C0.605 32.535 0.35 32.1 0.26 31.56C0.17 30.99 0.275 30.36 0.575 29.67L12.455 3.345C12.845 2.475 13.31 1.86 13.85 1.5C14.42 1.11 15.065 0.914997 15.785 0.914997C16.475 0.914997 17.09 1.11 17.63 1.5C18.2 1.86 18.68 2.475 19.07 3.345L30.995 29.67C31.325 30.36 31.445 30.99 31.355 31.56C31.265 32.13 31.01 32.58 30.59 32.91C30.17 33.21 29.615 33.36 28.925 33.36C28.085 33.36 27.425 33.165 26.945 32.775C26.495 32.355 26.09 31.725 25.73 30.885L22.805 24.09L25.235 25.665H6.245L8.675 24.09L5.795 30.885C5.405 31.755 5 32.385 4.58 32.775C4.16 33.165 3.56 33.36 2.78 33.36ZM15.695 7.53L9.395 22.515L8.225 21.075H23.255L22.13 22.515L15.785 7.53H15.695ZM38.8313 33.36C37.9013 33.36 37.1813 33.105 36.6713 32.595C36.1913 32.055 35.9513 31.32 35.9513 30.39V4.2C35.9513 3.24 36.2063 2.52 36.7163 2.04C37.2263 1.53 37.9463 1.275 38.8763 1.275H49.7213C53.2013 1.275 55.8863 2.115 57.7763 3.795C59.6663 5.445 60.6113 7.77 60.6113 10.77C60.6113 12.72 60.1763 14.4 59.3063 15.81C58.4663 17.22 57.2363 18.3 55.6163 19.05C53.9963 19.8 52.0313 20.175 49.7213 20.175L50.1263 19.5H51.6113C52.8413 19.5 53.9063 19.8 54.8063 20.4C55.7363 21 56.5463 21.945 57.2363 23.235L60.6113 29.49C60.9713 30.12 61.1363 30.735 61.1063 31.335C61.0763 31.935 60.8513 32.43 60.4313 32.82C60.0113 33.18 59.3963 33.36 58.5863 33.36C57.7763 33.36 57.1163 33.195 56.6063 32.865C56.0963 32.505 55.6463 31.965 55.2563 31.245L50.7113 22.875C50.1713 21.855 49.5263 21.18 48.7763 20.85C48.0563 20.49 47.1263 20.31 45.9863 20.31H41.7113V30.39C41.7113 31.32 41.4713 32.055 40.9913 32.595C40.5113 33.105 39.7913 33.36 38.8313 33.36ZM41.7113 16.035H48.7313C50.8013 16.035 52.3613 15.615 53.4113 14.775C54.4913 13.905 55.0313 12.615 55.0313 10.905C55.0313 9.225 54.4913 7.965 53.4113 7.125C52.3613 6.255 50.8013 5.82 48.7313 5.82H41.7113V16.035ZM76.452 33.36C75.522 33.36 74.802 33.105 74.292 32.595C73.812 32.055 73.572 31.32 73.572 30.39V6.09H64.797C64.017 6.09 63.402 5.88 62.952 5.46C62.532 5.01 62.322 4.41 62.322 3.66C62.322 2.88 62.532 2.295 62.952 1.905C63.402 1.485 64.017 1.275 64.797 1.275H88.107C88.887 1.275 89.487 1.485 89.907 1.905C90.357 2.295 90.582 2.88 90.582 3.66C90.582 4.41 90.357 5.01 89.907 5.46C89.487 5.88 88.887 6.09 88.107 6.09H79.332V30.39C79.332 31.32 79.092 32.055 78.612 32.595C78.132 33.105 77.412 33.36 76.452 33.36ZM103.752 33.45C102.432 33.45 101.112 33.345 99.7916 33.135C98.4716 32.955 97.2266 32.67 96.0566 32.28C94.8866 31.86 93.8366 31.35 92.9066 30.75C92.3666 30.39 91.9916 29.955 91.7816 29.445C91.5716 28.935 91.4966 28.44 91.5566 27.96C91.6466 27.45 91.8416 27.015 92.1416 26.655C92.4716 26.265 92.8766 26.025 93.3566 25.935C93.8366 25.845 94.3616 25.98 94.9316 26.34C96.2516 27.12 97.6466 27.69 99.1166 28.05C100.587 28.41 102.132 28.59 103.752 28.59C106.122 28.59 107.847 28.2 108.927 27.42C110.007 26.61 110.547 25.575 110.547 24.315C110.547 23.265 110.157 22.44 109.377 21.84C108.627 21.24 107.322 20.745 105.462 20.355L100.512 19.32C97.6616 18.72 95.5316 17.715 94.1216 16.305C92.7416 14.865 92.0516 12.975 92.0516 10.635C92.0516 9.165 92.3516 7.83 92.9516 6.63C93.5516 5.43 94.3916 4.395 95.4716 3.525C96.5816 2.655 97.8866 1.995 99.3866 1.545C100.917 1.065 102.597 0.824998 104.427 0.824998C106.227 0.824998 107.937 1.05 109.557 1.5C111.177 1.95 112.632 2.61 113.922 3.48C114.402 3.81 114.717 4.215 114.867 4.695C115.047 5.175 115.092 5.655 115.002 6.135C114.912 6.585 114.702 6.975 114.372 7.305C114.042 7.635 113.622 7.83 113.112 7.89C112.632 7.95 112.077 7.8 111.447 7.44C110.337 6.81 109.212 6.36 108.072 6.09C106.932 5.82 105.702 5.685 104.382 5.685C103.002 5.685 101.817 5.88 100.827 6.27C99.8366 6.66 99.0716 7.215 98.5316 7.935C98.0216 8.625 97.7666 9.45 97.7666 10.41C97.7666 11.49 98.1266 12.36 98.8466 13.02C99.5666 13.65 100.797 14.145 102.537 14.505L107.442 15.54C110.412 16.17 112.617 17.16 114.057 18.51C115.527 19.86 116.262 21.66 116.262 23.91C116.262 25.35 115.962 26.655 115.362 27.825C114.792 28.995 113.952 30 112.842 30.84C111.762 31.68 110.457 32.325 108.927 32.775C107.397 33.225 105.672 33.45 103.752 33.45ZM121.301 33.36C120.581 33.36 119.996 33.195 119.546 32.865C119.126 32.535 118.871 32.1 118.781 31.56C118.691 30.99 118.796 30.36 119.096 29.67L130.976 3.345C131.366 2.475 131.831 1.86 132.371 1.5C132.941 1.11 133.586 0.914997 134.306 0.914997C134.996 0.914997 135.611 1.11 136.151 1.5C136.721 1.86 137.201 2.475 137.591 3.345L149.516 29.67C149.846 30.36 149.966 30.99 149.876 31.56C149.786 32.13 149.531 32.58 149.111 32.91C148.691 33.21 148.136 33.36 147.446 33.36C146.606 33.36 145.946 33.165 145.466 32.775C145.016 32.355 144.611 31.725 144.251 30.885L141.326 24.09L143.756 25.665H124.766L127.196 24.09L124.316 30.885C123.926 31.755 123.521 32.385 123.101 32.775C122.681 33.165 122.081 33.36 121.301 33.36ZM134.216 7.53L127.916 22.515L126.746 21.075H141.776L140.651 22.515L134.306 7.53H134.216ZM157.532 33C156.542 33 155.777 32.745 155.237 32.235C154.727 31.695 154.472 30.93 154.472 29.94V4.335C154.472 3.345 154.727 2.595 155.237 2.085C155.777 1.545 156.542 1.275 157.532 1.275H168.332C170.552 1.275 172.442 1.605 174.002 2.265C175.562 2.925 176.747 3.87 177.557 5.1C178.397 6.33 178.817 7.8 178.817 9.51C178.817 11.43 178.262 13.05 177.152 14.37C176.042 15.69 174.527 16.575 172.607 17.025V16.35C174.827 16.68 176.552 17.52 177.782 18.87C179.012 20.22 179.627 21.975 179.627 24.135C179.627 26.955 178.667 29.145 176.747 30.705C174.857 32.235 172.217 33 168.827 33H157.532ZM160.007 28.635H168.107C170.147 28.635 171.647 28.245 172.607 27.465C173.567 26.655 174.047 25.455 174.047 23.865C174.047 22.245 173.567 21.045 172.607 20.265C171.647 19.485 170.147 19.095 168.107 19.095H160.007V28.635ZM160.007 14.73H167.342C169.322 14.73 170.792 14.355 171.752 13.605C172.742 12.825 173.237 11.685 173.237 10.185C173.237 8.685 172.742 7.56 171.752 6.81C170.792 6.03 169.322 5.64 167.342 5.64H160.007V14.73ZM199.673 33.45C196.613 33.45 193.928 32.775 191.618 31.425C189.338 30.075 187.568 28.185 186.308 25.755C185.048 23.295 184.418 20.415 184.418 17.115C184.418 14.625 184.778 12.39 185.498 10.41C186.218 8.4 187.238 6.69 188.558 5.28C189.908 3.84 191.513 2.745 193.373 1.995C195.263 1.215 197.363 0.824998 199.673 0.824998C202.763 0.824998 205.448 1.5 207.728 2.85C210.008 4.17 211.778 6.045 213.038 8.475C214.298 10.905 214.928 13.77 214.928 17.07C214.928 19.56 214.568 21.81 213.848 23.82C213.128 25.83 212.093 27.555 210.743 28.995C209.423 30.435 207.818 31.545 205.928 32.325C204.068 33.075 201.983 33.45 199.673 33.45ZM199.673 28.5C201.623 28.5 203.273 28.05 204.623 27.15C206.003 26.25 207.053 24.945 207.773 23.235C208.523 21.525 208.898 19.485 208.898 17.115C208.898 13.515 208.088 10.725 206.468 8.745C204.878 6.765 202.613 5.775 199.673 5.775C197.753 5.775 196.103 6.225 194.723 7.125C193.343 7.995 192.278 9.285 191.528 10.995C190.808 12.675 190.448 14.715 190.448 17.115C190.448 20.685 191.258 23.475 192.878 25.485C194.498 27.495 196.763 28.5 199.673 28.5ZM220.441 33.36C219.721 33.36 219.136 33.195 218.686 32.865C218.266 32.535 218.011 32.1 217.921 31.56C217.831 30.99 217.936 30.36 218.236 29.67L230.116 3.345C230.506 2.475 230.971 1.86 231.511 1.5C232.081 1.11 232.726 0.914997 233.446 0.914997C234.136 0.914997 234.751 1.11 235.291 1.5C235.861 1.86 236.341 2.475 236.731 3.345L248.656 29.67C248.986 30.36 249.106 30.99 249.016 31.56C248.926 32.13 248.671 32.58 248.251 32.91C247.831 33.21 247.276 33.36 246.586 33.36C245.746 33.36 245.086 33.165 244.606 32.775C244.156 32.355 243.751 31.725 243.391 30.885L240.466 24.09L242.896 25.665H223.906L226.336 24.09L223.456 30.885C223.066 31.755 222.661 32.385 222.241 32.775C221.821 33.165 221.221 33.36 220.441 33.36ZM233.356 7.53L227.056 22.515L225.886 21.075H240.916L239.791 22.515L233.446 7.53H233.356ZM256.492 33.36C255.562 33.36 254.842 33.105 254.332 32.595C253.852 32.055 253.612 31.32 253.612 30.39V4.2C253.612 3.24 253.867 2.52 254.377 2.04C254.887 1.53 255.607 1.275 256.537 1.275H267.382C270.862 1.275 273.547 2.115 275.437 3.795C277.327 5.445 278.272 7.77 278.272 10.77C278.272 12.72 277.837 14.4 276.967 15.81C276.127 17.22 274.897 18.3 273.277 19.05C271.657 19.8 269.692 20.175 267.382 20.175L267.787 19.5H269.272C270.502 19.5 271.567 19.8 272.467 20.4C273.397 21 274.207 21.945 274.897 23.235L278.272 29.49C278.632 30.12 278.797 30.735 278.767 31.335C278.737 31.935 278.512 32.43 278.092 32.82C277.672 33.18 277.057 33.36 276.247 33.36C275.437 33.36 274.777 33.195 274.267 32.865C273.757 32.505 273.307 31.965 272.917 31.245L268.372 22.875C267.832 21.855 267.187 21.18 266.437 20.85C265.717 20.49 264.787 20.31 263.647 20.31H259.372V30.39C259.372 31.32 259.132 32.055 258.652 32.595C258.172 33.105 257.452 33.36 256.492 33.36ZM259.372 16.035H266.392C268.462 16.035 270.022 15.615 271.072 14.775C272.152 13.905 272.692 12.615 272.692 10.905C272.692 9.225 272.152 7.965 271.072 7.125C270.022 6.255 268.462 5.82 266.392 5.82H259.372V16.035ZM287.342 33.36C286.412 33.36 285.692 33.105 285.182 32.595C284.702 32.055 284.462 31.32 284.462 30.39V3.885C284.462 2.925 284.702 2.19 285.182 1.68C285.692 1.17 286.412 0.914997 287.342 0.914997C288.272 0.914997 288.977 1.17 289.457 1.68C289.967 2.19 290.222 2.925 290.222 3.885V30.39C290.222 31.32 289.982 32.055 289.502 32.595C289.022 33.105 288.302 33.36 287.342 33.36ZM297.477 33.36C296.757 33.36 296.172 33.195 295.722 32.865C295.302 32.535 295.047 32.1 294.957 31.56C294.867 30.99 294.972 30.36 295.272 29.67L307.152 3.345C307.542 2.475 308.007 1.86 308.547 1.5C309.117 1.11 309.762 0.914997 310.482 0.914997C311.172 0.914997 311.787 1.11 312.327 1.5C312.897 1.86 313.377 2.475 313.767 3.345L325.692 29.67C326.022 30.36 326.142 30.99 326.052 31.56C325.962 32.13 325.707 32.58 325.287 32.91C324.867 33.21 324.312 33.36 323.622 33.36C322.782 33.36 322.122 33.165 321.642 32.775C321.192 32.355 320.787 31.725 320.427 30.885L317.502 24.09L319.932 25.665H300.942L303.372 24.09L300.492 30.885C300.102 31.755 299.697 32.385 299.277 32.775C298.857 33.165 298.257 33.36 297.477 33.36ZM310.392 7.53L304.092 22.515L302.922 21.075H317.952L316.827 22.515L310.482 7.53H310.392Z" fill="#41A1F7"/>
</svg>
